<mxfile host="app.diagrams.net" agent="Mozilla/5.0 (Windows NT 10.0; Win64; x64; rv:142.0) Gecko/20100101 Firefox/142.0" version="28.2.3">
  <diagram name="Сторінка-1" id="vSKm7By8YL-TwdSfs9O_">
    <mxGraphModel dx="1422" dy="811" grid="1" gridSize="10" guides="1" tooltips="1" connect="1" arrows="1" fold="1" page="1" pageScale="1" pageWidth="827" pageHeight="1169" math="0" shadow="0">
      <root>
        <mxCell id="0" />
        <mxCell id="1" parent="0" />
        <mxCell id="dgDFlRBfYXEU3C94xwk2-1" value="E-mail клієнт" style="swimlane;" vertex="1" parent="1">
          <mxGeometry x="220" y="100" width="456" height="490" as="geometry" />
        </mxCell>
        <mxCell id="dgDFlRBfYXEU3C94xwk2-31" style="edgeStyle=entityRelationEdgeStyle;curved=1;rounded=0;orthogonalLoop=1;jettySize=auto;html=1;startArrow=open;endArrow=none;segment=10;sourcePerimeterSpacing=0;targetPerimeterSpacing=0;exitX=1;exitY=0.5;exitDx=0;exitDy=0;entryX=0;entryY=0.5;entryDx=0;entryDy=0;fontSize=12;startSize=8;endSize=8;endFill=0;dashed=1;startFill=0;" edge="1" parent="dgDFlRBfYXEU3C94xwk2-1" source="dgDFlRBfYXEU3C94xwk2-4" target="dgDFlRBfYXEU3C94xwk2-24">
          <mxGeometry relative="1" as="geometry" />
        </mxCell>
        <mxCell id="dgDFlRBfYXEU3C94xwk2-32" value="&amp;lt;&amp;lt;include&amp;gt;&amp;gt;" style="edgeLabel;html=1;align=center;verticalAlign=middle;resizable=0;points=[];fontSize=12;" vertex="1" connectable="0" parent="dgDFlRBfYXEU3C94xwk2-31">
          <mxGeometry x="0.1364" y="4" relative="1" as="geometry">
            <mxPoint as="offset" />
          </mxGeometry>
        </mxCell>
        <mxCell id="dgDFlRBfYXEU3C94xwk2-4" value="Налаштувати акаунт" style="ellipse;whiteSpace=wrap;html=1;align=center;newEdgeStyle={&quot;edgeStyle&quot;:&quot;entityRelationEdgeStyle&quot;,&quot;startArrow&quot;:&quot;none&quot;,&quot;endArrow&quot;:&quot;none&quot;,&quot;segment&quot;:10,&quot;curved&quot;:1,&quot;sourcePerimeterSpacing&quot;:0,&quot;targetPerimeterSpacing&quot;:0};treeFolding=1;treeMoving=1;" vertex="1" parent="dgDFlRBfYXEU3C94xwk2-1">
          <mxGeometry x="30" y="40" width="110" height="40" as="geometry" />
        </mxCell>
        <mxCell id="dgDFlRBfYXEU3C94xwk2-33" style="rounded=0;orthogonalLoop=1;jettySize=auto;html=1;startArrow=open;endArrow=none;segment=10;sourcePerimeterSpacing=0;targetPerimeterSpacing=0;exitX=1;exitY=0.5;exitDx=0;exitDy=0;entryX=0;entryY=0.5;entryDx=0;entryDy=0;fontSize=12;startSize=8;endSize=8;endFill=0;dashed=1;startFill=0;" edge="1" parent="dgDFlRBfYXEU3C94xwk2-1" source="dgDFlRBfYXEU3C94xwk2-5" target="dgDFlRBfYXEU3C94xwk2-26">
          <mxGeometry relative="1" as="geometry" />
        </mxCell>
        <mxCell id="dgDFlRBfYXEU3C94xwk2-34" value="&amp;lt;&amp;lt;include&amp;gt;&amp;gt;" style="edgeLabel;html=1;align=center;verticalAlign=middle;resizable=0;points=[];fontSize=12;" vertex="1" connectable="0" parent="dgDFlRBfYXEU3C94xwk2-33">
          <mxGeometry x="-0.192" relative="1" as="geometry">
            <mxPoint as="offset" />
          </mxGeometry>
        </mxCell>
        <mxCell id="dgDFlRBfYXEU3C94xwk2-5" value="Переглядати пошту" style="ellipse;whiteSpace=wrap;html=1;align=center;newEdgeStyle={&quot;edgeStyle&quot;:&quot;entityRelationEdgeStyle&quot;,&quot;startArrow&quot;:&quot;none&quot;,&quot;endArrow&quot;:&quot;none&quot;,&quot;segment&quot;:10,&quot;curved&quot;:1,&quot;sourcePerimeterSpacing&quot;:0,&quot;targetPerimeterSpacing&quot;:0};treeFolding=1;treeMoving=1;" vertex="1" parent="dgDFlRBfYXEU3C94xwk2-1">
          <mxGeometry x="30" y="120" width="110" height="50" as="geometry" />
        </mxCell>
        <mxCell id="dgDFlRBfYXEU3C94xwk2-6" value="Сортувати за папками/категоріями/важливістю." style="ellipse;whiteSpace=wrap;html=1;align=center;newEdgeStyle={&quot;edgeStyle&quot;:&quot;entityRelationEdgeStyle&quot;,&quot;startArrow&quot;:&quot;none&quot;,&quot;endArrow&quot;:&quot;none&quot;,&quot;segment&quot;:10,&quot;curved&quot;:1,&quot;sourcePerimeterSpacing&quot;:0,&quot;targetPerimeterSpacing&quot;:0};treeFolding=1;treeMoving=1;" vertex="1" parent="dgDFlRBfYXEU3C94xwk2-1">
          <mxGeometry x="190" y="270" width="146" height="60" as="geometry" />
        </mxCell>
        <mxCell id="dgDFlRBfYXEU3C94xwk2-46" style="rounded=0;orthogonalLoop=1;jettySize=auto;html=1;startArrow=open;endArrow=none;segment=10;sourcePerimeterSpacing=0;targetPerimeterSpacing=0;exitX=0.5;exitY=1;exitDx=0;exitDy=0;entryX=0;entryY=0;entryDx=0;entryDy=0;fontSize=12;startSize=8;endSize=8;dashed=1;startFill=0;" edge="1" parent="dgDFlRBfYXEU3C94xwk2-1" source="dgDFlRBfYXEU3C94xwk2-11" target="dgDFlRBfYXEU3C94xwk2-45">
          <mxGeometry relative="1" as="geometry" />
        </mxCell>
        <mxCell id="dgDFlRBfYXEU3C94xwk2-47" value="&amp;lt;&amp;lt;extend&amp;gt;&amp;gt;" style="edgeLabel;html=1;align=center;verticalAlign=middle;resizable=0;points=[];fontSize=12;" vertex="1" connectable="0" parent="dgDFlRBfYXEU3C94xwk2-46">
          <mxGeometry x="0.0849" y="-1" relative="1" as="geometry">
            <mxPoint as="offset" />
          </mxGeometry>
        </mxCell>
        <mxCell id="dgDFlRBfYXEU3C94xwk2-48" style="rounded=0;orthogonalLoop=1;jettySize=auto;html=1;startArrow=open;endArrow=none;segment=10;sourcePerimeterSpacing=0;targetPerimeterSpacing=0;exitX=1;exitY=0.5;exitDx=0;exitDy=0;entryX=0;entryY=0.5;entryDx=0;entryDy=0;fontSize=12;startSize=8;endSize=8;dashed=1;startFill=0;" edge="1" parent="dgDFlRBfYXEU3C94xwk2-1" source="dgDFlRBfYXEU3C94xwk2-11" target="dgDFlRBfYXEU3C94xwk2-44">
          <mxGeometry relative="1" as="geometry" />
        </mxCell>
        <mxCell id="dgDFlRBfYXEU3C94xwk2-49" value="&amp;lt;&amp;lt;extend&amp;gt;&amp;gt;" style="edgeLabel;html=1;align=center;verticalAlign=middle;resizable=0;points=[];fontSize=12;" vertex="1" connectable="0" parent="dgDFlRBfYXEU3C94xwk2-48">
          <mxGeometry x="0.0882" y="2" relative="1" as="geometry">
            <mxPoint as="offset" />
          </mxGeometry>
        </mxCell>
        <mxCell id="dgDFlRBfYXEU3C94xwk2-11" value="Написати повідомлення" style="ellipse;whiteSpace=wrap;html=1;align=center;newEdgeStyle={&quot;edgeStyle&quot;:&quot;entityRelationEdgeStyle&quot;,&quot;startArrow&quot;:&quot;none&quot;,&quot;endArrow&quot;:&quot;none&quot;,&quot;segment&quot;:10,&quot;curved&quot;:1,&quot;sourcePerimeterSpacing&quot;:0,&quot;targetPerimeterSpacing&quot;:0};treeFolding=1;treeMoving=1;" vertex="1" parent="dgDFlRBfYXEU3C94xwk2-1">
          <mxGeometry x="30" y="340" width="110" height="50" as="geometry" />
        </mxCell>
        <mxCell id="dgDFlRBfYXEU3C94xwk2-39" style="rounded=0;orthogonalLoop=1;jettySize=auto;html=1;startArrow=open;endArrow=none;segment=10;sourcePerimeterSpacing=0;targetPerimeterSpacing=0;exitX=1;exitY=1;exitDx=0;exitDy=0;entryX=0;entryY=0.5;entryDx=0;entryDy=0;fontSize=12;startSize=8;endSize=8;dashed=1;startFill=0;" edge="1" parent="dgDFlRBfYXEU3C94xwk2-1" source="dgDFlRBfYXEU3C94xwk2-12" target="dgDFlRBfYXEU3C94xwk2-6">
          <mxGeometry relative="1" as="geometry" />
        </mxCell>
        <mxCell id="dgDFlRBfYXEU3C94xwk2-40" value="&amp;lt;&amp;lt;extend&amp;gt;&amp;gt;" style="edgeLabel;html=1;align=center;verticalAlign=middle;resizable=0;points=[];fontSize=12;" vertex="1" connectable="0" parent="dgDFlRBfYXEU3C94xwk2-39">
          <mxGeometry x="-0.0536" y="-1" relative="1" as="geometry">
            <mxPoint as="offset" />
          </mxGeometry>
        </mxCell>
        <mxCell id="dgDFlRBfYXEU3C94xwk2-12" value="Керувати повідомленням" style="ellipse;whiteSpace=wrap;html=1;align=center;newEdgeStyle={&quot;edgeStyle&quot;:&quot;entityRelationEdgeStyle&quot;,&quot;startArrow&quot;:&quot;none&quot;,&quot;endArrow&quot;:&quot;none&quot;,&quot;segment&quot;:10,&quot;curved&quot;:1,&quot;sourcePerimeterSpacing&quot;:0,&quot;targetPerimeterSpacing&quot;:0};treeFolding=1;treeMoving=1;" vertex="1" parent="dgDFlRBfYXEU3C94xwk2-1">
          <mxGeometry x="40" y="220" width="110" height="50" as="geometry" />
        </mxCell>
        <mxCell id="dgDFlRBfYXEU3C94xwk2-18" value="Пошук і фільтрація" style="ellipse;whiteSpace=wrap;html=1;align=center;newEdgeStyle={&quot;edgeStyle&quot;:&quot;entityRelationEdgeStyle&quot;,&quot;startArrow&quot;:&quot;none&quot;,&quot;endArrow&quot;:&quot;none&quot;,&quot;segment&quot;:10,&quot;curved&quot;:1,&quot;sourcePerimeterSpacing&quot;:0,&quot;targetPerimeterSpacing&quot;:0};treeFolding=1;treeMoving=1;" vertex="1" parent="dgDFlRBfYXEU3C94xwk2-1">
          <mxGeometry x="240" y="190" width="110" height="50" as="geometry" />
        </mxCell>
        <mxCell id="dgDFlRBfYXEU3C94xwk2-24" value="Авторизація" style="ellipse;whiteSpace=wrap;html=1;align=center;newEdgeStyle={&quot;edgeStyle&quot;:&quot;entityRelationEdgeStyle&quot;,&quot;startArrow&quot;:&quot;none&quot;,&quot;endArrow&quot;:&quot;none&quot;,&quot;segment&quot;:10,&quot;curved&quot;:1,&quot;sourcePerimeterSpacing&quot;:0,&quot;targetPerimeterSpacing&quot;:0};treeFolding=1;treeMoving=1;" vertex="1" parent="dgDFlRBfYXEU3C94xwk2-1">
          <mxGeometry x="326" y="40" width="110" height="50" as="geometry" />
        </mxCell>
        <mxCell id="dgDFlRBfYXEU3C94xwk2-26" value="Отримання пошти" style="ellipse;whiteSpace=wrap;html=1;align=center;newEdgeStyle={&quot;edgeStyle&quot;:&quot;entityRelationEdgeStyle&quot;,&quot;startArrow&quot;:&quot;none&quot;,&quot;endArrow&quot;:&quot;none&quot;,&quot;segment&quot;:10,&quot;curved&quot;:1,&quot;sourcePerimeterSpacing&quot;:0,&quot;targetPerimeterSpacing&quot;:0};treeFolding=1;treeMoving=1;" vertex="1" parent="dgDFlRBfYXEU3C94xwk2-1">
          <mxGeometry x="336" y="125" width="110" height="50" as="geometry" />
        </mxCell>
        <mxCell id="dgDFlRBfYXEU3C94xwk2-27" value="Відправка пошти" style="ellipse;whiteSpace=wrap;html=1;align=center;newEdgeStyle={&quot;edgeStyle&quot;:&quot;entityRelationEdgeStyle&quot;,&quot;startArrow&quot;:&quot;none&quot;,&quot;endArrow&quot;:&quot;none&quot;,&quot;segment&quot;:10,&quot;curved&quot;:1,&quot;sourcePerimeterSpacing&quot;:0,&quot;targetPerimeterSpacing&quot;:0};treeFolding=1;treeMoving=1;" vertex="1" parent="dgDFlRBfYXEU3C94xwk2-1">
          <mxGeometry x="316" y="350" width="110" height="50" as="geometry" />
        </mxCell>
        <mxCell id="dgDFlRBfYXEU3C94xwk2-35" style="rounded=0;orthogonalLoop=1;jettySize=auto;html=1;startArrow=open;endArrow=none;segment=10;sourcePerimeterSpacing=0;targetPerimeterSpacing=0;exitX=1;exitY=0;exitDx=0;exitDy=0;entryX=0.045;entryY=0.7;entryDx=0;entryDy=0;entryPerimeter=0;fontSize=12;startSize=8;endSize=8;dashed=1;startFill=0;" edge="1" parent="dgDFlRBfYXEU3C94xwk2-1" source="dgDFlRBfYXEU3C94xwk2-12" target="dgDFlRBfYXEU3C94xwk2-18">
          <mxGeometry relative="1" as="geometry" />
        </mxCell>
        <mxCell id="dgDFlRBfYXEU3C94xwk2-36" value="&amp;lt;&amp;lt;extend&amp;gt;&amp;gt;" style="edgeLabel;html=1;align=center;verticalAlign=middle;resizable=0;points=[];fontSize=12;" vertex="1" connectable="0" parent="dgDFlRBfYXEU3C94xwk2-35">
          <mxGeometry x="0.0795" y="-1" relative="1" as="geometry">
            <mxPoint as="offset" />
          </mxGeometry>
        </mxCell>
        <mxCell id="dgDFlRBfYXEU3C94xwk2-44" value="Зберегти чернетку" style="ellipse;whiteSpace=wrap;html=1;align=center;newEdgeStyle={&quot;edgeStyle&quot;:&quot;entityRelationEdgeStyle&quot;,&quot;startArrow&quot;:&quot;none&quot;,&quot;endArrow&quot;:&quot;none&quot;,&quot;segment&quot;:10,&quot;curved&quot;:1,&quot;sourcePerimeterSpacing&quot;:0,&quot;targetPerimeterSpacing&quot;:0};treeFolding=1;treeMoving=1;" vertex="1" parent="dgDFlRBfYXEU3C94xwk2-1">
          <mxGeometry x="190" y="370" width="110" height="50" as="geometry" />
        </mxCell>
        <mxCell id="dgDFlRBfYXEU3C94xwk2-45" value="Прикріпити файл" style="ellipse;whiteSpace=wrap;html=1;align=center;newEdgeStyle={&quot;edgeStyle&quot;:&quot;entityRelationEdgeStyle&quot;,&quot;startArrow&quot;:&quot;none&quot;,&quot;endArrow&quot;:&quot;none&quot;,&quot;segment&quot;:10,&quot;curved&quot;:1,&quot;sourcePerimeterSpacing&quot;:0,&quot;targetPerimeterSpacing&quot;:0};treeFolding=1;treeMoving=1;" vertex="1" parent="dgDFlRBfYXEU3C94xwk2-1">
          <mxGeometry x="94" y="430" width="110" height="50" as="geometry" />
        </mxCell>
        <mxCell id="dgDFlRBfYXEU3C94xwk2-2" value="Користувач" style="shape=umlActor;verticalLabelPosition=bottom;verticalAlign=top;html=1;outlineConnect=0;" vertex="1" parent="1">
          <mxGeometry x="130" y="200" width="30" height="60" as="geometry" />
        </mxCell>
        <mxCell id="dgDFlRBfYXEU3C94xwk2-3" value="Поштовий сервер" style="shape=umlActor;verticalLabelPosition=bottom;verticalAlign=top;html=1;outlineConnect=0;" vertex="1" parent="1">
          <mxGeometry x="770" y="230" width="30" height="60" as="geometry" />
        </mxCell>
        <mxCell id="dgDFlRBfYXEU3C94xwk2-13" style="rounded=0;orthogonalLoop=1;jettySize=auto;html=1;startArrow=none;endArrow=none;segment=10;sourcePerimeterSpacing=0;targetPerimeterSpacing=0;exitX=0;exitY=0.5;exitDx=0;exitDy=0;entryX=1;entryY=0.3333333333333333;entryDx=0;entryDy=0;entryPerimeter=0;fontSize=12;startSize=8;endSize=8;" edge="1" parent="1" source="dgDFlRBfYXEU3C94xwk2-4" target="dgDFlRBfYXEU3C94xwk2-2">
          <mxGeometry relative="1" as="geometry" />
        </mxCell>
        <mxCell id="dgDFlRBfYXEU3C94xwk2-14" style="rounded=0;orthogonalLoop=1;jettySize=auto;html=1;startArrow=none;endArrow=none;segment=10;sourcePerimeterSpacing=0;targetPerimeterSpacing=0;exitX=0;exitY=0.5;exitDx=0;exitDy=0;fontSize=12;startSize=8;endSize=8;" edge="1" parent="1" source="dgDFlRBfYXEU3C94xwk2-5" target="dgDFlRBfYXEU3C94xwk2-2">
          <mxGeometry relative="1" as="geometry" />
        </mxCell>
        <mxCell id="dgDFlRBfYXEU3C94xwk2-15" style="rounded=0;orthogonalLoop=1;jettySize=auto;html=1;startArrow=none;endArrow=none;segment=10;sourcePerimeterSpacing=0;targetPerimeterSpacing=0;exitX=0;exitY=0.5;exitDx=0;exitDy=0;entryX=1;entryY=1;entryDx=0;entryDy=0;entryPerimeter=0;fontSize=12;startSize=8;endSize=8;" edge="1" parent="1" source="dgDFlRBfYXEU3C94xwk2-11" target="dgDFlRBfYXEU3C94xwk2-2">
          <mxGeometry relative="1" as="geometry" />
        </mxCell>
        <mxCell id="dgDFlRBfYXEU3C94xwk2-16" style="rounded=0;orthogonalLoop=1;jettySize=auto;html=1;startArrow=none;endArrow=none;segment=10;sourcePerimeterSpacing=0;targetPerimeterSpacing=0;exitX=0;exitY=0.5;exitDx=0;exitDy=0;fontSize=12;startSize=8;endSize=8;" edge="1" parent="1" source="dgDFlRBfYXEU3C94xwk2-12" target="dgDFlRBfYXEU3C94xwk2-2">
          <mxGeometry relative="1" as="geometry" />
        </mxCell>
        <mxCell id="dgDFlRBfYXEU3C94xwk2-25" value="Пошук і фільтрація" style="ellipse;whiteSpace=wrap;html=1;align=center;newEdgeStyle={&quot;edgeStyle&quot;:&quot;entityRelationEdgeStyle&quot;,&quot;startArrow&quot;:&quot;none&quot;,&quot;endArrow&quot;:&quot;none&quot;,&quot;segment&quot;:10,&quot;curved&quot;:1,&quot;sourcePerimeterSpacing&quot;:0,&quot;targetPerimeterSpacing&quot;:0};treeFolding=1;treeMoving=1;" vertex="1" parent="1">
          <mxGeometry x="440" y="830" width="110" height="50" as="geometry" />
        </mxCell>
        <mxCell id="dgDFlRBfYXEU3C94xwk2-28" style="edgeStyle=entityRelationEdgeStyle;curved=1;rounded=0;orthogonalLoop=1;jettySize=auto;html=1;startArrow=none;endArrow=none;segment=10;sourcePerimeterSpacing=0;targetPerimeterSpacing=0;exitX=1;exitY=0.5;exitDx=0;exitDy=0;fontSize=12;startSize=8;endSize=8;" edge="1" parent="1" source="dgDFlRBfYXEU3C94xwk2-26" target="dgDFlRBfYXEU3C94xwk2-3">
          <mxGeometry relative="1" as="geometry" />
        </mxCell>
        <mxCell id="dgDFlRBfYXEU3C94xwk2-29" style="rounded=0;orthogonalLoop=1;jettySize=auto;html=1;startArrow=none;endArrow=none;segment=10;sourcePerimeterSpacing=0;targetPerimeterSpacing=0;exitX=1;exitY=0.5;exitDx=0;exitDy=0;entryX=0;entryY=0.3333333333333333;entryDx=0;entryDy=0;entryPerimeter=0;fontSize=12;startSize=8;endSize=8;" edge="1" parent="1" source="dgDFlRBfYXEU3C94xwk2-24" target="dgDFlRBfYXEU3C94xwk2-3">
          <mxGeometry relative="1" as="geometry" />
        </mxCell>
        <mxCell id="dgDFlRBfYXEU3C94xwk2-30" style="rounded=0;orthogonalLoop=1;jettySize=auto;html=1;startArrow=none;endArrow=none;segment=10;sourcePerimeterSpacing=0;targetPerimeterSpacing=0;exitX=1;exitY=0.5;exitDx=0;exitDy=0;entryX=0;entryY=1;entryDx=0;entryDy=0;entryPerimeter=0;fontSize=12;startSize=8;endSize=8;" edge="1" parent="1" source="dgDFlRBfYXEU3C94xwk2-27" target="dgDFlRBfYXEU3C94xwk2-3">
          <mxGeometry relative="1" as="geometry" />
        </mxCell>
      </root>
    </mxGraphModel>
  </diagram>
</mxfile>
